<svg width="14" height="15" viewBox="0 0 14 15" fill="none" xmlns="http://www.w3.org/2000/svg">
<g clip-path="url(#clip0_1148_1608)">
<path d="M6.99449 1.66675C3.77449 1.66675 1.16699 4.28008 1.16699 7.50008C1.16699 10.7201 3.77449 13.3334 6.99449 13.3334C10.2203 13.3334 12.8337 10.7201 12.8337 7.50008C12.8337 4.28008 10.2203 1.66675 6.99449 1.66675ZM7.00033 12.1667C4.42199 12.1667 2.33366 10.0784 2.33366 7.50008C2.33366 4.92175 4.42199 2.83341 7.00033 2.83341C9.57866 2.83341 11.667 4.92175 11.667 7.50008C11.667 10.0784 9.57866 12.1667 7.00033 12.1667ZM7.29199 4.58341H6.41699V8.08341L9.47949 9.92091L9.91699 9.20341L7.29199 7.64591V4.58341Z" fill="#2E3440"/>
</g>
<defs>
<clipPath id="clip0_1148_1608">
<rect width="14" height="14" fill="white" transform="translate(0 0.5)"/>
</clipPath>
</defs>
</svg>
