<svg width="40" height="40" viewBox="0 0 40 40" fill="none" xmlns="http://www.w3.org/2000/svg">
  <circle cx="20" cy="20" r="19.5" fill="#CBD3EA" stroke="#4159A0"/>
  <g clip-path="url(#clip0_1337_54378)">
    <path d="M22 10H14C12.9 10 12.01 10.9 12.01 12L12 28C12 29.1 12.89 30 13.99 30H26C27.1 30 28 29.1 28 28V16L22 10ZM14 12H21L26 17V25.58L24.16 23.74C25.44 21.8 25.23 19.17 23.52 17.46C22.55 16.49 21.28 16 20 16C18.72 16 17.45 16.49 16.47 17.46C14.52 19.41 14.52 22.57 16.47 24.51C17.44 25.48 18.72 25.97 20 25.97C20.96 25.97 21.92 25.69 22.75 25.14L25.6 28H14V12ZM22.11 23.1C21.55 23.66 20.8 23.98 20 23.98C19.2 23.98 18.45 23.67 17.89 23.1C17.33 22.54 17.01 21.79 17.01 20.99C17.01 20.19 17.32 19.44 17.89 18.88C18.45 18.31 19.2 18 20 18C20.8 18 21.55 18.31 22.11 18.88C22.67 19.44 22.99 20.19 22.99 20.99C22.99 21.79 22.68 22.54 22.11 23.1Z" fill="#2E3440"/>
  </g>
  <defs>
    <clipPath id="clip0_1337_54378">
      <rect width="24" height="24" fill="white" transform="translate(8 8)"/>
    </clipPath>
  </defs>
</svg>