<svg width="40" height="40" viewBox="0 0 40 40" fill="none" xmlns="http://www.w3.org/2000/svg">
  <circle cx="20" cy="20" r="20" fill="#F692A3"/>
  <g clip-path="url(#clip0_1093_44260)">
    <path d="M12 19.0911C13.1 19.0911 14 18.1911 14 17.0911C14 15.9911 13.1 15.0911 12 15.0911C10.9 15.0911 10 15.9911 10 17.0911C10 18.1911 10.9 19.0911 12 19.0911ZM13.13 20.1911C12.76 20.1311 12.39 20.0911 12 20.0911C11.01 20.0911 10.07 20.3011 9.22 20.6711C8.48 20.9911 8 21.7111 8 22.5211V24.0911H12.5V22.4811C12.5 21.6511 12.73 20.8711 13.13 20.1911ZM28 19.0911C29.1 19.0911 30 18.1911 30 17.0911C30 15.9911 29.1 15.0911 28 15.0911C26.9 15.0911 26 15.9911 26 17.0911C26 18.1911 26.9 19.0911 28 19.0911ZM32 22.5211C32 21.7111 31.52 20.9911 30.78 20.6711C29.93 20.3011 28.99 20.0911 28 20.0911C27.61 20.0911 27.24 20.1311 26.87 20.1911C27.27 20.8711 27.5 21.6511 27.5 22.4811V24.0911H32V22.5211ZM24.24 19.7411C23.07 19.2211 21.63 18.8411 20 18.8411C18.37 18.8411 16.93 19.2311 15.76 19.7411C14.68 20.2211 14 21.3011 14 22.4811V24.0911H26V22.4811C26 21.3011 25.32 20.2211 24.24 19.7411ZM16.07 22.0911C16.16 21.8611 16.2 21.7011 16.98 21.4011C17.95 21.0211 18.97 20.8411 20 20.8411C21.03 20.8411 22.05 21.0211 23.02 21.4011C23.79 21.7011 23.83 21.8611 23.93 22.0911H16.07ZM20 14.0911C20.55 14.0911 21 14.5411 21 15.0911C21 15.6411 20.55 16.0911 20 16.0911C19.45 16.0911 19 15.6411 19 15.0911C19 14.5411 19.45 14.0911 20 14.0911ZM20 12.0911C18.34 12.0911 17 13.4311 17 15.0911C17 16.7511 18.34 18.0911 20 18.0911C21.66 18.0911 23 16.7511 23 15.0911C23 13.4311 21.66 12.0911 20 12.0911Z" fill="#323232"/>
  </g>
  <defs>
    <clipPath id="clip0_1093_44260">
      <rect width="24" height="24" fill="white" transform="translate(8 6.09106)"/>
    </clipPath>
  </defs>
</svg>