<svg width="40" height="40" viewBox="0 0 40 40" fill="none" xmlns="http://www.w3.org/2000/svg">
  <circle cx="20" cy="20" r="20" fill="#F692A3"/>
  <g clip-path="url(#clip0_1093_44252)">
    <path d="M26.6 27.5911H29V29.5911H23V23.5911H25V26.3211C26.83 24.8511 28 22.6111 28 20.0911C28 16.0211 24.94 12.6511 21 12.1611V10.1411C26.05 10.6411 30 14.9011 30 20.0911C30 23.0811 28.68 25.7611 26.6 27.5911ZM12 20.0911C12 17.5711 13.17 15.3211 15 13.8611V16.5911H17V10.5911H11V12.5911H13.4C11.32 14.4211 10 17.1011 10 20.0911C10 25.2811 13.95 29.5411 19 30.0411V28.0211C15.06 27.5311 12 24.1611 12 20.0911ZM24.24 16.2011L18.58 21.8611L15.75 19.0311L14.34 20.4411L18.58 24.6811L25.65 17.6111L24.24 16.2011Z" fill="#323232"/>
  </g>
  <defs>
    <clipPath id="clip0_1093_44252">
      <rect width="24" height="24" fill="white" transform="translate(8 8.09106)"/>
    </clipPath>
  </defs>
</svg>