<svg width="642" height="834" viewBox="0 0 642 834" fill="none" xmlns="http://www.w3.org/2000/svg">
  <path d="M978.364 603.936C978.801 512.459 943.547 421.16 872.498 351.698C730.398 212.773 498.924 213.832 355.489 354.061C212.054 494.291 210.972 720.593 353.071 859.518C424.121 928.98 517.507 963.446 611.075 963.019L611.233 929.899C526.328 930.287 441.602 899.009 377.14 835.987C248.201 709.929 249.183 504.588 379.334 377.345C509.485 250.102 719.518 249.142 848.458 375.2C912.92 438.222 944.913 521.083 944.516 604.063L978.364 603.936Z" fill="url(#paint0_linear_990_70143)"/>
  <path d="M876.763 604.4L910.639 604.245C910.981 529.719 882.278 455.327 824.389 398.73C708.609 285.538 520.016 286.4 403.149 400.656C286.282 514.912 285.4 699.291 401.179 812.484C459.069 869.08 535.162 897.169 611.391 896.807L611.55 863.688C543.997 863.996 476.55 839.109 425.248 788.953C322.628 688.627 323.424 525.223 426.994 423.968C530.563 322.713 697.715 321.949 800.32 422.261C851.609 472.403 877.079 538.329 876.763 604.4Z" fill="url(#paint1_linear_990_70143)"/>
  <path d="M1012.21 603.778L1046.08 603.623C1046.6 495.209 1004.81 386.989 920.599 304.661C752.18 140.005 477.824 141.259 307.822 307.462C137.821 473.665 136.538 741.891 304.957 906.547C377.643 977.609 470.087 1017.7 565.338 1027.03L496.765 1094.07L520.596 1117.37L611.355 1028.64L611.513 995.629C606.824 995.65 602.136 995.755 597.462 995.623L597.218 995.862C499.621 993.052 403.176 955.539 329.011 883.031C173.752 731.241 174.934 483.976 331.653 330.76C488.371 177.543 741.286 176.387 896.545 328.177C974.182 404.079 1012.7 503.847 1012.21 603.778Z" fill="url(#paint2_linear_990_70143)"/>
  <defs>
    <linearGradient id="paint0_linear_990_70143" x1="842.815" y1="176.3" x2="262.868" y2="683.067" gradientUnits="userSpaceOnUse">
      <stop stop-color="#CBD3EA"/>
      <stop offset="1" stop-color="#CBD3EA" stop-opacity="0"/>
    </linearGradient>
    <linearGradient id="paint1_linear_990_70143" x1="800.204" y1="255.822" x2="327.683" y2="668.717" gradientUnits="userSpaceOnUse">
      <stop stop-color="#CBD3EA"/>
      <stop offset="1" stop-color="#CBD3EA" stop-opacity="0"/>
    </linearGradient>
    <linearGradient id="paint2_linear_990_70143" x1="885.42" y1="96.7746" x2="198.045" y2="697.413" gradientUnits="userSpaceOnUse">
      <stop stop-color="#CBD3EA"/>
      <stop offset="1" stop-color="#CBD3EA" stop-opacity="0"/>
    </linearGradient>
  </defs>
</svg>