<svg viewBox="0 0 145 141" fill="none" xmlns="http://www.w3.org/2000/svg">
  <rect width="145" height="141" fill="#E71335"/>
  <rect width="101" height="93" transform="translate(22 24)" fill="#E71335"/>
  <path d="M98.1329 42.7584C90.8517 35.6581 80.7942 31.2673 69.6844 31.2673C47.4649 31.2673 29.4521 48.8326 29.4521 70.5C29.4521 92.1675 47.4649 109.733 69.6844 109.733C80.7942 109.733 90.8517 105.342 98.1329 98.2416L95.4967 95.671C88.8896 102.114 79.7642 106.097 69.6844 106.097C49.5227 106.097 33.1784 90.1587 33.1784 70.4978C33.1784 50.837 49.5227 34.8988 69.6844 34.8988C79.7642 34.8988 88.8918 38.8839 95.4967 45.3247L98.1329 42.7584Z" fill="white"/>
  <path d="M90.2292 50.4683L92.8653 47.8976C86.9323 42.1141 78.739 38.5347 69.687 38.5347C51.583 38.5347 36.9072 52.8459 36.9072 70.5C36.9072 88.1542 51.583 102.465 69.687 102.465C78.739 102.465 86.9345 98.8881 92.8653 93.1025L90.2292 90.5318C84.9724 95.658 77.709 98.8296 69.687 98.8296C53.6408 98.8296 40.6357 86.1454 40.6357 70.5C40.6357 54.8547 53.643 42.1705 69.687 42.1705C77.7068 42.1705 84.9702 45.3399 90.2292 50.4683Z" fill="white"/>
  <path d="M100.767 40.1898L103.403 37.6192C94.774 29.2043 82.8523 24 69.6847 24C43.3497 24 22 44.8192 22 70.5C22 96.1808 43.3497 117 69.6847 117C81.0503 117 91.4838 113.115 99.6771 106.641V117H103.403V103.29L100.776 100.728C100.411 101.083 100.053 101.446 99.6771 101.789V101.825C91.8219 108.98 81.2817 113.366 69.6847 113.366C45.4075 113.366 25.7262 94.1741 25.7262 70.5C25.7262 46.8259 45.4075 27.6337 69.6847 27.6337C81.8245 27.6337 92.8141 32.4323 100.767 40.1898Z" fill="white"/>
  <path d="M64.4995 82.2059C64.1347 82.451 63.6831 82.5747 63.1914 82.5747C62.1481 82.5747 61.3183 81.9499 61.3183 80.4639C61.3183 79.0538 62.1481 78.2316 63.4562 78.2316C64.237 78.2316 64.8777 78.5505 65.4316 79.1753L67.3314 77.5439C66.4394 76.4766 65.0423 75.8887 63.3071 75.8887C60.4017 75.8887 58.3262 77.7413 58.3262 80.4877C58.3262 83.3209 60.3261 84.8655 62.7776 84.8655C63.7075 84.8655 64.5128 84.6572 65.1424 84.1409V84.6681H67.0801V80.145H64.5017V82.2059H64.4995ZM70.9642 78.685V77.9605H68.2591V84.6702H71.1022V81.6896C71.1022 80.6222 71.705 80.2426 72.5615 80.2426C72.7617 80.2426 72.9397 80.2556 73.1911 80.2925V77.839C72.2345 77.839 71.467 78.121 70.9642 78.685ZM77.5691 84.7939C79.9094 84.7939 81.569 83.3469 81.569 81.3099C81.569 79.2729 79.9094 77.839 77.5691 77.839C75.2422 77.839 73.5693 79.2729 73.5693 81.3099C73.5693 83.3469 75.2422 84.7939 77.5691 84.7939ZM77.5691 82.6354C76.9396 82.6354 76.4502 82.182 76.4502 81.3099C76.4502 80.44 76.9396 79.9975 77.5691 79.9975C78.1987 79.9975 78.6881 80.44 78.6881 81.3099C78.6881 82.182 78.1965 82.6354 77.5691 82.6354ZM91.166 77.9626V81.4835C91.166 82.2688 90.928 82.5877 90.4119 82.5877C89.9202 82.5877 89.6444 82.2688 89.6444 81.4835V77.9626H86.8013V81.4835C86.8013 82.2688 86.5255 82.5877 86.0338 82.5877C85.5555 82.5877 85.2797 82.2688 85.2797 81.4835V77.9626H82.4366V81.6657C82.4366 83.6767 83.7313 84.7939 85.9715 84.7939C86.8636 84.7939 87.6311 84.6095 88.2228 84.0216C88.8146 84.6095 89.5932 84.7939 90.4742 84.7939C92.701 84.7939 94.0091 83.6789 94.0091 81.6657V77.9626H91.166ZM99.2903 82.5117C99.1012 82.6332 98.8766 82.6961 98.6496 82.6961C98.3093 82.6961 98.0579 82.4618 98.0579 82.0453V80.3532H99.4661V78.3292H98.0579V76.4528H95.2148V82.0692C95.2148 83.9218 96.3227 84.7917 98.2203 84.7917C98.8877 84.7917 99.5284 84.6811 99.9689 84.436L99.2903 82.5117ZM105.466 77.839C104.723 77.839 104.058 78.0602 103.528 78.5006V75.5698H100.685V84.6702H103.528V81.5182C103.528 80.5246 104.02 80.1688 104.598 80.1688C105.114 80.1688 105.441 80.4877 105.441 81.3229V84.6724H108.284V80.8457C108.284 78.7349 107.052 77.839 105.466 77.839Z" fill="white"/>
  <path d="M48.8535 73.7692C50.5776 73.7692 51.9346 73.1553 52.8022 72.0511L50.9291 70.4198C50.413 71.0575 49.7968 71.4263 49.0048 71.4263C47.7724 71.4263 46.9426 70.5911 46.9426 69.2787C46.9426 67.9662 47.7724 67.1332 49.0048 67.1332C49.7968 67.1332 50.413 67.502 50.9291 68.1398L52.8022 66.5084C51.9346 65.4042 50.5754 64.7903 48.8535 64.7903C46.0238 64.7903 43.9482 66.6429 43.9482 69.2787C43.9482 71.9144 46.0238 73.7692 48.8535 73.7692ZM57.0157 73.6955C59.356 73.6955 61.0155 72.2485 61.0155 70.2115C61.0155 68.1767 59.356 66.7405 57.0157 66.7405C54.6887 66.7405 53.0158 68.1767 53.0158 70.2115C53.0158 72.2485 54.6887 73.6955 57.0157 73.6955ZM57.0157 71.537C56.3861 71.537 55.8967 71.0836 55.8967 70.2115C55.8967 69.3416 56.3883 68.899 57.0157 68.899C57.6452 68.899 58.1346 69.3416 58.1346 70.2115C58.1346 71.0836 57.6452 71.537 57.0157 71.537ZM71.0152 66.7405C70.072 66.7405 69.2667 67.1093 68.7127 67.758C68.2344 67.0594 67.4558 66.7405 66.5615 66.7405C65.8074 66.7405 65.1266 66.9857 64.6127 67.489V66.8642H61.9076V73.574H64.7507V70.2983C64.7507 69.4023 65.14 69.0726 65.6427 69.0726C66.121 69.0726 66.4102 69.3915 66.4102 70.2245V73.5718H69.2533V70.2961C69.2533 69.4002 69.6426 69.0704 70.1454 69.0704C70.597 69.0704 70.9129 69.3893 70.9129 70.2223V73.5697H73.7559V69.7429C73.7582 67.6365 72.5747 66.7405 71.0152 66.7405ZM79.58 66.7405C78.7235 66.7405 78.1073 66.9618 77.6935 67.4152V66.8642H74.9906V75.9538H77.8337V73.1206C78.2474 73.5133 78.8281 73.6977 79.5822 73.6977C81.3819 73.6977 82.9036 72.3852 82.9036 70.2267C82.9013 68.066 81.3797 66.7405 79.58 66.7405ZM78.9015 71.537C78.2719 71.537 77.7825 71.0944 77.7825 70.2245C77.7825 69.3546 78.2719 68.899 78.9015 68.899C79.531 68.899 80.0205 69.3524 80.0205 70.2245C80.0205 71.0966 79.531 71.537 78.9015 71.537ZM88.4985 66.8642V67.3176C88.0825 66.9249 87.5041 66.7405 86.7499 66.7405C84.9524 66.7405 83.4286 68.053 83.4286 70.2115C83.4286 72.37 84.9502 73.6955 86.7499 73.6955C87.6042 73.6955 88.2204 73.4742 88.6364 73.0208V73.5718H91.3416V66.862H88.4985V66.8642ZM87.4284 71.537C86.7989 71.537 86.3095 71.0836 86.3095 70.2115C86.3095 69.3416 86.7989 68.899 87.4284 68.899C88.058 68.899 88.5474 69.3416 88.5474 70.2115C88.5497 71.0836 88.058 71.537 87.4284 71.537ZM96.6495 71.4155C96.4604 71.5391 96.2335 71.5999 96.0088 71.5999C95.6684 71.5999 95.4171 71.3678 95.4171 70.9491V69.257H96.8252V67.233H95.4171V65.3565H92.574V70.9751C92.574 72.8277 93.6819 73.6977 95.5795 73.6977C96.2468 73.6977 96.8875 73.587 97.328 73.3419L96.6495 71.4155ZM99.4659 66.324C100.509 66.324 101.177 65.7101 101.177 64.8641C101.177 64.0657 100.509 63.5017 99.4659 63.5017C98.4225 63.5017 97.7551 64.1156 97.7551 64.9118C97.7551 65.7123 98.4225 66.324 99.4659 66.324ZM98.0443 73.574H100.887V66.8642H98.0443V73.574ZM106.736 66.7405C105.982 66.7405 105.403 66.9249 104.987 67.3176V64.4714H102.144V73.5718H104.849V73.0208C105.265 73.4742 105.882 73.6955 106.736 73.6955C108.536 73.6955 110.057 72.37 110.057 70.2115C110.057 68.053 108.536 66.7405 106.736 66.7405ZM106.057 71.537C105.428 71.537 104.938 71.0836 104.938 70.2115C104.938 69.3416 105.43 68.899 106.057 68.899C106.687 68.899 107.176 69.3416 107.176 70.2115C107.176 71.0836 106.687 71.537 106.057 71.537ZM113.83 73.6955C114.246 73.6955 114.622 73.6456 115.049 73.5241L114.936 71.4762C114.822 71.537 114.609 71.5999 114.42 71.5999C114.03 71.5999 113.79 71.3786 113.79 70.9491V64.4736H110.947V71.0966C110.949 72.8126 112.057 73.6955 113.83 73.6955ZM119.565 71.6476C118.949 71.6476 118.522 71.4762 118.295 71.0597L123 70.1768C123 67.9445 121.265 66.7427 119.265 66.7427C117 66.7427 115.316 68.1788 115.316 70.2137C115.316 72.2138 116.951 73.6977 119.479 73.6977C120.838 73.6977 121.806 73.3289 122.484 72.6173L121 71.1573C120.546 71.4892 120.195 71.6476 119.565 71.6476ZM119.276 68.63C119.792 68.63 120.157 68.9121 120.308 69.3286L118.106 69.7451C118.195 68.9858 118.635 68.63 119.276 68.63Z" fill="white"/>
  <path d="M61.7959 62.6729C63.52 62.6729 64.877 62.059 65.7446 60.9548L63.8715 59.3235C63.3554 59.9612 62.7392 60.33 61.9472 60.33C60.7148 60.33 59.885 59.4948 59.885 58.1824C59.885 56.8699 60.7148 56.0369 61.9472 56.0369C62.7392 56.0369 63.3554 56.4057 63.8715 57.0435L65.7446 55.4121C64.877 54.3079 63.5178 53.694 61.7959 53.694C58.9662 53.694 56.8906 55.5466 56.8906 58.1824C56.8906 60.8181 58.9662 62.6729 61.7959 62.6729ZM69.393 62.5992C69.809 62.5992 70.185 62.5493 70.6121 62.4278L70.4986 60.3799C70.3852 60.4407 70.1716 60.5036 69.9825 60.5036C69.5932 60.5036 69.3529 60.2823 69.3529 59.8528V53.3751H66.5099V59.9981C66.5121 61.7162 67.6177 62.5992 69.393 62.5992ZM72.7878 55.2277C73.8311 55.2277 74.4985 54.6138 74.4985 53.7677C74.4985 52.9694 73.8311 52.4054 72.7878 52.4054C71.7444 52.4054 71.077 53.0193 71.077 53.8155C71.077 54.6138 71.7444 55.2277 72.7878 55.2277ZM71.3662 62.4755H74.2093V55.7657H71.3662V62.4755ZM84.5738 55.6442C83.6306 55.6442 82.8253 56.013 82.2713 56.6617C81.793 55.9631 81.0144 55.6442 80.1201 55.6442C79.366 55.6442 78.6852 55.8894 78.1713 56.3927V55.7679H75.4662V62.4777H78.3093V59.202C78.3093 58.306 78.6986 57.9763 79.2036 57.9763C79.6819 57.9763 79.9711 58.2952 79.9711 59.1304V62.4777H82.8141V59.202C82.8141 58.306 83.2034 57.9763 83.7062 57.9763C84.16 57.9763 84.4737 58.2952 84.4737 59.1304V62.4777H87.3168V58.651C87.3145 56.5402 86.1333 55.6442 84.5738 55.6442ZM93.3788 55.7679V56.2213C92.9628 55.8286 92.3844 55.6442 91.6303 55.6442C89.8328 55.6442 88.3089 56.9567 88.3089 59.1152C88.3089 61.2737 89.8306 62.5992 91.6303 62.5992C92.4868 62.5992 93.103 62.3779 93.5168 61.9245V62.4755H96.2219V55.7657H93.3788V55.7679ZM92.3088 60.4407C91.6792 60.4407 91.1898 59.9873 91.1898 59.1152C91.1898 58.2453 91.6792 57.8027 92.3088 57.8027C92.9384 57.8027 93.4278 58.2453 93.4278 59.1152C93.4278 59.9851 92.9384 60.4407 92.3088 60.4407ZM101.528 60.317C101.339 60.4407 101.114 60.5014 100.887 60.5014C100.547 60.5014 100.295 60.2693 100.295 59.8506V58.1585H101.703V56.1345H100.295V54.258H97.4521V59.8766C97.4521 61.7293 98.56 62.5992 100.458 62.5992C101.125 62.5992 101.766 62.4885 102.206 62.2434L101.528 60.317ZM106.622 60.5513C106.006 60.5513 105.579 60.3799 105.352 59.9634L110.057 59.0805C110.057 56.8482 108.322 55.6464 106.322 55.6464C104.057 55.6464 102.373 57.0825 102.373 59.1174C102.373 61.1175 104.008 62.6013 106.535 62.6013C107.895 62.6013 108.862 62.2326 109.541 61.521L108.057 60.061C107.603 60.3908 107.252 60.5513 106.622 60.5513ZM106.333 57.5337C106.849 57.5337 107.214 57.8158 107.365 58.2323L105.163 58.6488C105.252 57.8895 105.692 57.5337 106.333 57.5337Z" fill="white"/>
</svg>